<svg xmlns="http://www.w3.org/2000/svg" width="348" height="816" viewBox="0 0 348 816" version="1.1">
	<path d="M 204.691 34.197 C 203.505 37.035, 202.508 37.870, 199.666 38.403 C 197.715 38.769, 194.968 38.779, 193.560 38.426 C 190.860 37.748, 190.217 38.817, 192.158 40.758 C 194.137 42.737, 191.233 45.210, 187.813 44.459 L 184.944 43.829 187.431 47.494 C 190.218 51.601, 189.612 53.945, 185.248 55.933 C 182.304 57.274, 183.211 59, 186.859 59 C 190.510 59, 192 60.686, 192 64.817 C 192 67.592, 192.328 68.140, 193.750 67.739 C 194.713 67.466, 195.950 67.129, 196.500 66.988 C 198.913 66.371, 203.857 68.346, 204.319 70.111 C 205.007 72.742, 208 71.437, 208 68.507 C 208 66.731, 208.718 66.088, 211.250 65.597 C 216.243 64.629, 216.367 64.624, 219.106 65.312 C 220.658 65.701, 222.416 65.416, 223.543 64.592 C 225.340 63.278, 225.310 63.095, 222.748 59.737 C 219.892 55.992, 220.058 55, 223.544 55 C 224.760 55, 226.268 54.382, 226.895 53.626 C 227.788 52.551, 227.497 51.901, 225.553 50.626 C 224.187 49.732, 222.380 49, 221.535 49 C 220.465 49, 220 48, 220 45.700 C 220 43.885, 219.508 41.908, 218.907 41.307 C 218.117 40.517, 218.130 39.626, 218.954 38.087 C 219.580 36.916, 219.820 35.518, 219.487 34.979 C 218.475 33.342, 214.442 33.882, 212.024 35.979 C 209.536 38.137, 208.009 37.839, 207.985 35.191 C 207.976 34.261, 207.565 32.860, 207.070 32.079 C 206.380 30.989, 205.824 31.485, 204.691 34.197 M 208.138 39.805 C 205.832 40.037, 204.617 40.750, 204.271 42.072 C 203.789 43.914, 202.436 44.417, 198.881 44.074 C 197.672 43.958, 197.382 44.547, 197.735 46.397 C 197.996 47.759, 197.487 50.322, 196.605 52.091 C 194.611 56.087, 194.613 56.153, 196.742 55.794 C 198.151 55.556, 198.424 56.121, 198.167 58.750 C 197.838 62.118, 199.475 63.125, 201.684 60.916 C 202.463 60.137, 203.208 60.459, 204.329 62.060 L 205.890 64.288 206.583 61.394 C 207.616 57.085, 207.759 57.002, 211.468 58.551 C 215.420 60.202, 216.526 59.317, 216.180 54.779 C 216.030 52.811, 216.435 52, 217.567 52 C 220.258 52, 218.529 49.522, 215.597 49.176 C 213.011 48.872, 212.886 48.631, 213.483 45.098 C 214.244 40.595, 212.955 39.319, 208.138 39.805 M 215.553 44.915 C 215.231 45.436, 215.394 46.125, 215.915 46.447 C 216.436 46.769, 217.125 46.606, 217.447 46.085 C 217.769 45.564, 217.606 44.875, 217.085 44.553 C 216.564 44.231, 215.875 44.394, 215.553 44.915 M 194 47 C 194 47.550, 194.477 48, 195.059 48 C 195.641 48, 195.840 47.550, 195.500 47 C 195.160 46.450, 194.684 46, 194.441 46 C 194.198 46, 194 46.450, 194 47 M 219 61.500 C 219 62.325, 219.730 63, 220.622 63 C 221.951 63, 222.020 62.729, 221 61.500 C 220.315 60.675, 219.585 60, 219.378 60 C 219.170 60, 219 60.675, 219 61.500 M 209.500 62 C 209.840 62.550, 210.316 63, 210.559 63 C 210.802 63, 211 62.550, 211 62 C 211 61.450, 210.523 61, 209.941 61 C 209.359 61, 209.160 61.450, 209.500 62 M 45.761 68.828 C 42.862 70.761, 42.269 71.620, 43.124 72.650 C 43.730 73.380, 44.595 73.751, 45.044 73.473 C 45.494 73.195, 46.167 73.461, 46.540 74.065 C 46.913 74.669, 45.986 76.449, 44.479 78.022 C 41.336 81.303, 41.677 84.579, 45.070 83.692 C 46.580 83.297, 47.034 83.584, 46.803 84.785 C 46.631 85.680, 45.369 86.677, 44 87 C 40.493 87.828, 40.039 91, 43.427 91 C 46.598 91, 46.722 92.567, 43.750 95.089 C 41.511 96.989, 41.510 97.006, 43.500 98.557 L 45.500 100.116 43.500 101.308 C 42.400 101.963, 40.600 102.745, 39.500 103.045 C 38.368 103.354, 37.500 104.439, 37.500 105.545 C 37.500 107.590, 39.317 107.859, 43.750 106.471 C 45.053 106.063, 46 106.188, 46 106.767 C 46 107.317, 45.100 108.002, 44 108.290 C 42.803 108.603, 42 109.654, 42 110.906 C 42 112.333, 42.637 113, 44 113 C 45.100 113, 46 113.381, 46 113.847 C 46 114.313, 45.100 115.732, 44 117 C 41.500 119.882, 41.476 121.050, 43.901 121.684 C 46.874 122.462, 47.141 126.661, 44.383 129.274 C 41.666 131.849, 41.372 133.545, 43.500 134.362 C 45.364 135.077, 45.477 137, 43.655 137 C 41.770 137, 38.667 140.653, 39.461 141.937 C 39.822 142.522, 41.104 143.014, 42.309 143.032 C 44.414 143.062, 44.393 143.158, 41.750 145.484 C 38.192 148.615, 38.269 150, 42 150 C 44.333 150, 45 150.444, 45 152 C 45 153.100, 44.635 154, 44.189 154 C 43.742 154, 42.382 154.927, 41.166 156.060 C 38.690 158.367, 39.230 160.435, 42.113 159.681 C 44.644 159.019, 44.540 160.694, 42 161.500 C 40.861 161.862, 40 163.013, 40 164.176 C 40 165.854, 40.445 166.105, 42.500 165.589 C 46.021 164.706, 45.618 166.502, 41.954 168.019 C 38.123 169.606, 38.336 172.518, 42.277 172.461 C 45.440 172.415, 45.511 172.668, 43.476 176.747 C 42.515 178.674, 40.515 180.377, 38.061 181.359 C 35.921 182.215, 33.878 183.388, 33.522 183.965 C 32.507 185.607, 35.861 186.384, 38.592 185.140 C 40.746 184.158, 41.178 184.299, 42.026 186.259 C 42.559 187.491, 43.559 189.314, 44.248 190.309 C 45.294 191.820, 45.197 192.342, 43.659 193.485 C 41.791 194.873, 42.097 199, 44.067 199 C 45.796 199, 45.017 201.920, 43 203 C 41.900 203.589, 41 204.983, 41 206.099 C 41 207.783, 41.549 208.074, 44.242 207.813 C 46.559 207.589, 47.586 206.929, 47.841 205.500 C 48.038 204.400, 49.795 202.101, 51.746 200.392 C 55.748 196.886, 55.423 195, 50.819 195 C 48.209 195, 47.940 194.778, 49 193.500 C 49.685 192.675, 50.839 192, 51.566 192 C 52.863 192, 56 188.305, 56 186.777 C 56 186.350, 54.425 186, 52.500 186 C 50.056 186, 49 185.548, 49 184.500 C 49 183.585, 49.932 183, 51.392 183 C 53.068 183, 53.960 182.297, 54.373 180.650 C 54.755 179.128, 56.053 177.983, 58.057 177.400 C 59.758 176.905, 61.098 176.050, 61.034 175.500 C 60.901 174.351, 59.139 174.330, 53.500 175.410 L 49.500 176.177 51.974 173.536 C 54.055 171.313, 54.214 170.747, 52.974 169.963 C 52.163 169.450, 50.938 169.024, 50.250 169.015 C 48.680 168.996, 48.625 166.775, 50.158 165.242 C 51.034 164.366, 50.977 163.677, 49.921 162.405 C 48.702 160.936, 48.807 160.540, 50.764 159.241 C 53.537 157.399, 53.639 156, 51 156 C 48.145 156, 48.527 154.473, 52 152 C 53.650 150.825, 55 150.344, 55 150.932 C 55 152.588, 56.907 152.202, 60.153 149.891 C 63.866 147.247, 64.615 147.911, 62.511 151.979 C 61.210 154.495, 61.124 155.445, 62.092 156.611 C 63.140 157.873, 63.695 157.708, 66.073 155.430 C 69.190 152.444, 71.302 152.948, 70.419 156.468 C 69.884 158.597, 70.138 158.799, 73.165 158.657 C 76.310 158.509, 76.517 158.707, 76.803 162.126 C 76.994 164.413, 76.533 166.325, 75.553 167.304 C 72.137 170.720, 74.474 172.777, 78.905 170.254 C 82.256 168.347, 82.897 167, 80.453 167 C 79.127 167, 79.163 166.658, 80.703 164.603 C 81.691 163.285, 82.928 162.467, 83.451 162.786 C 83.994 163.118, 83.887 163.538, 83.201 163.766 C 82.540 163.987, 82 164.834, 82 165.651 C 82 166.700, 82.611 166.941, 84.086 166.473 C 85.930 165.887, 86.046 166.046, 85.086 167.840 C 84.489 168.956, 84 170.123, 84 170.434 C 84 171.578, 88.851 170.959, 89.359 169.750 C 89.744 168.833, 90.159 168.930, 90.917 170.116 C 91.588 171.167, 92.832 171.564, 94.475 171.250 C 96.755 170.814, 97 171.081, 97 174.008 C 97 177.077, 97.160 177.218, 100 176.650 C 102.523 176.145, 103 176.364, 103 178.025 C 103 179.465, 103.677 180, 105.500 180 C 107.056 180, 108 180.567, 108 181.500 C 108 182.428, 108.941 183, 110.465 183 C 111.859 183, 113.369 183.822, 113.942 184.891 C 114.747 186.396, 114.345 187.549, 111.977 190.529 C 108.810 194.514, 108.452 195.543, 109.919 196.450 C 110.904 197.059, 111.029 196.944, 118.255 188.836 C 120.870 185.901, 124.808 181.495, 127.005 179.044 C 131.475 174.059, 131.689 173.478, 129.379 172.592 C 127.760 171.971, 125.527 173.960, 121.703 179.430 C 119.552 182.507, 117.371 182.746, 116.500 180 C 116.151 178.900, 115.221 178, 114.433 178 C 113.645 178, 113 177.314, 113 176.475 C 113 175.584, 111.765 174.703, 110.030 174.356 C 108.298 174.010, 106.799 172.942, 106.435 171.796 C 105.961 170.302, 105.234 169.975, 103.406 170.434 C 100.671 171.121, 100.501 170.772, 102.225 168.011 C 104.161 164.912, 101.850 163.213, 98.597 165.345 C 96.238 166.890, 95.884 166.864, 92.546 164.894 C 90.596 163.744, 89 162.172, 89 161.401 C 89 160.631, 88.311 160, 87.469 160 C 84.906 160, 84.608 157.021, 86.865 153.968 C 88.039 152.380, 89 150.795, 89 150.445 C 89 150.095, 89.908 148.533, 91.018 146.975 C 92.264 145.225, 92.647 143.900, 92.018 143.511 C 90.607 142.639, 89 143.802, 89 145.694 C 89 146.561, 87.987 148.286, 86.750 149.527 C 85.513 150.768, 83.748 152.844, 82.829 154.141 C 81.172 156.479, 81.144 156.483, 79.659 154.500 C 78.835 153.400, 77.660 152.500, 77.047 152.500 C 76.435 152.500, 75.358 151.375, 74.655 150 C 73.791 148.311, 72.662 147.578, 71.172 147.741 C 69.298 147.946, 69.058 147.617, 69.577 145.548 C 70.485 141.933, 69.460 141, 66.010 142.302 C 61.583 143.973, 60 142.053, 62.241 137.732 C 63.164 135.954, 64.062 133.150, 64.238 131.500 L 64.558 128.500 66.878 132.250 C 69.860 137.072, 72.437 137.351, 71.490 132.750 C 71.122 130.963, 70.626 128.375, 70.388 127 C 69.990 124.707, 70.032 124.675, 70.893 126.611 C 71.875 128.818, 74.377 130.290, 75.402 129.264 C 75.731 128.936, 76 126.887, 76 124.711 C 76 121.308, 76.210 120.929, 77.500 122 C 78.699 122.995, 79.310 122.987, 80.546 121.962 C 81.396 121.257, 81.872 120.110, 81.605 119.413 C 81 117.837, 82.667 116.475, 86.250 115.619 C 87.763 115.258, 89 114.295, 89 113.481 C 89 111.814, 91.551 111.464, 92.500 113 C 93.855 115.193, 96 113.968, 96 111 C 96 107.777, 98.322 106.792, 99.386 109.563 C 100.378 112.149, 102.126 110.048, 101.802 106.659 C 101.524 103.750, 101.717 103.523, 104.250 103.788 C 106.445 104.018, 107 103.664, 107 102.038 C 107 100.667, 107.654 100, 109 100 C 110.100 100, 111.822 99.178, 112.826 98.174 C 113.831 97.169, 115.406 96.058, 116.326 95.705 C 118.549 94.852, 118.439 93.357, 116 91.268 C 114.900 90.326, 114 88.816, 114 87.913 C 114 85.704, 110.208 81, 108.427 81 C 106.499 81, 106.630 82.317, 109 86.739 C 110.985 90.443, 111.629 94, 110.314 94 C 109.937 94, 108.610 93.043, 107.365 91.873 C 104.306 88.999, 102.191 89.942, 102.775 93.920 C 103.149 96.467, 102.940 96.914, 101.615 96.406 C 100.727 96.065, 100 95.384, 100 94.893 C 100 93.501, 97.013 93.844, 96.894 95.250 C 96.836 95.938, 96.870 97.738, 96.970 99.252 C 97.123 101.572, 96.790 101.964, 94.852 101.752 C 93.588 101.613, 92.485 102.063, 92.402 102.750 C 92.318 103.438, 92.194 104.450, 92.125 105 C 91.923 106.614, 89 106.146, 89 104.500 C 89 102.393, 86.269 102.629, 85.087 104.838 C 84.545 105.849, 84.357 107.649, 84.668 108.838 C 85.075 110.396, 84.781 111, 83.617 111 C 82.727 111, 82 110.325, 82 109.500 C 82 108.567, 81.056 108, 79.500 108 C 77.238 108, 77 108.392, 77 112.122 C 77 115.618, 76.779 116.061, 75.544 115.036 C 73.598 113.421, 72 114.559, 72 117.559 C 72 118.902, 71.550 120, 71 120 C 70.450 120, 70 119.438, 70 118.750 C 70.001 118.063, 68.557 114.685, 66.793 111.245 C 62.981 103.810, 61.219 104.838, 63.577 113.120 C 64.420 116.079, 65.375 119.625, 65.700 121 C 66.283 123.465, 66.262 123.474, 64.208 121.652 C 61.682 119.410, 59.650 120.387, 60.255 123.553 C 60.888 126.865, 59.293 129.060, 57.932 126.750 C 56.251 123.897, 54 124.612, 54 128 C 54 130.333, 53.556 131, 52 131 C 48.900 131, 49.620 128.672, 53.965 124.652 C 58.640 120.328, 58.439 118, 53.393 118 C 49.858 118, 48.593 115.754, 51.500 114.638 C 52.325 114.322, 53 113.422, 53 112.638 C 53 111.855, 52.325 110.955, 51.500 110.638 C 49.440 109.848, 49.621 108.305, 52.015 106.256 L 54.029 104.531 51.908 102.931 C 49.799 101.339, 49.805 101.323, 53.144 99.958 C 57.874 98.022, 59.641 96.183, 57.543 95.378 C 56.661 95.040, 54.602 95.030, 52.969 95.356 C 48.451 96.260, 49.417 94.756, 55 92.195 C 62.023 88.973, 61.772 87.563, 54.250 87.975 C 50.349 88.189, 50.170 87.440, 53.500 84.821 C 54.875 83.740, 56 82.486, 56 82.036 C 56 81.585, 54.875 80.934, 53.500 80.589 C 49.894 79.684, 50.299 76.705, 54.327 74.500 C 56.891 73.097, 56.522 71.557, 53.531 71.184 C 51.836 70.972, 51 70.248, 51 68.993 C 51 66.137, 49.850 66.101, 45.761 68.828 M 197.505 80.993 C 196.454 82.693, 197.973 84, 201 84 C 204.509 84, 206.013 85.922, 203.101 86.684 C 200.204 87.441, 200.472 88.848, 203.750 90.099 C 206.406 91.114, 206.434 91.198, 204.559 92.575 C 203.491 93.359, 202.254 94, 201.809 94 C 199.838 94, 201.249 96.846, 203.500 97.411 C 204.875 97.756, 206 98.471, 206 99 C 206 99.529, 204.875 100.244, 203.500 100.589 C 200.130 101.435, 200.347 102.698, 204 103.500 C 207.247 104.213, 207.892 105.444, 205.500 106.362 C 203.241 107.228, 203.673 110, 206.066 110 C 207.729 110, 208.071 110.535, 207.816 112.738 C 207.554 115.013, 206.902 115.573, 203.966 116.046 C 202.022 116.359, 199.863 116.967, 199.167 117.396 C 197.087 118.682, 199.795 121.090, 202.545 120.399 C 204.530 119.901, 204.780 120.125, 204.298 121.968 C 203.876 123.583, 204.267 124.257, 205.868 124.676 C 208.277 125.306, 208.521 126.079, 206.842 127.758 C 206.017 128.583, 205.991 129.287, 206.751 130.208 C 207.337 130.918, 207.970 133.964, 208.158 136.975 L 208.500 142.449 203.570 143.513 C 200.859 144.099, 198.451 145.146, 198.220 145.841 C 197.890 146.829, 200.326 147, 209.380 146.623 C 215.750 146.359, 221.442 145.845, 222.029 145.482 C 223.703 144.447, 221.164 142.021, 218.679 142.279 C 217.510 142.401, 216.526 142.050, 216.491 141.500 C 216.457 140.950, 215.904 139.557, 215.262 138.405 C 214.338 136.746, 214.403 135.870, 215.571 134.202 C 216.911 132.289, 216.861 131.996, 215.023 131.012 C 212.426 129.622, 212.117 122.553, 214.613 121.595 C 215.846 121.122, 215.960 120.657, 215.099 119.619 C 214.179 118.511, 215.077 118.137, 219.986 117.581 C 223.294 117.207, 226 116.503, 226 116.018 C 226 114.577, 222.075 113.763, 218.428 114.448 C 215.658 114.967, 215.137 114.807, 215.608 113.580 C 215.950 112.689, 215.074 111.046, 213.460 109.550 C 211.371 107.615, 210.994 106.713, 211.844 105.689 C 212.659 104.706, 212.641 104.041, 211.776 103.176 C 210.875 102.275, 210.986 102, 212.253 102 C 214.442 102, 219 99.891, 219 98.878 C 219 98.438, 217.200 97.592, 215 97 C 209.838 95.610, 209.924 94.330, 215.250 93.277 C 221.233 92.094, 220.915 89.727, 214.652 88.831 C 208.991 88.021, 208.735 87.853, 209.627 85.530 C 210.171 84.111, 211.139 83.868, 214.666 84.266 C 218.941 84.748, 221.088 83.688, 219.353 81.953 C 218.050 80.650, 198.254 79.779, 197.505 80.993 M 263.421 87.568 C 262.923 90.225, 261.766 91.788, 258.890 93.692 C 255.167 96.156, 254.934 96.186, 252.433 94.548 C 249.686 92.748, 246.996 93.080, 247.006 95.219 C 247.010 95.923, 247.668 97.758, 248.470 99.295 C 250.007 102.240, 249.094 103.484, 245.899 102.800 C 244.971 102.601, 244.395 103.593, 244.187 105.750 C 243.911 108.608, 243.519 109, 240.937 109 C 238.482 109, 238 109.405, 238 111.465 C 238 112.918, 238.833 114.375, 240.028 115.015 C 242.576 116.379, 241.678 118, 238.375 118 C 236.997 118, 234.969 118.481, 233.870 119.070 C 230.853 120.684, 233.359 123, 238.122 123 C 242.783 123, 242.984 123.995, 239 127.347 C 234.904 130.793, 235.231 132, 240.259 132 C 243.489 132, 244.833 132.502, 245.817 134.078 C 246.819 135.683, 246.846 136.481, 245.935 137.578 C 244.967 138.745, 245.218 139, 247.333 139 C 251.293 139, 257.573 143.682, 257.164 146.328 C 256.978 147.523, 256.416 148.927, 255.914 149.450 C 254.494 150.926, 254.837 153, 256.500 153 C 257.325 153, 258 152.325, 258 151.500 C 258 150.675, 258.450 150, 259 150 C 259.550 150, 260 149.341, 260 148.535 C 260 146.858, 263.590 144.629, 264.944 145.465 C 265.440 145.772, 266.134 147.335, 266.486 148.938 C 267.021 151.373, 270.583 155, 272.439 155 C 273.558 155, 276 148.920, 276 146.133 C 276 143.800, 276.640 142.885, 279 141.840 C 280.650 141.109, 282 140.172, 282 139.756 C 282 139.340, 282.708 139, 283.573 139 C 284.887 139, 284.814 139.421, 283.128 141.564 C 281.012 144.255, 281.183 146.472, 283.577 147.391 C 285.460 148.114, 285.405 150, 283.500 150 C 282.580 150, 282 150.936, 282 152.421 C 282 154.297, 281.326 154.989, 279 155.500 C 275.465 156.276, 275.051 158.469, 278.250 159.472 L 280.500 160.178 278.074 160.867 C 274.879 161.773, 274.375 163.595, 276.939 164.967 C 279.574 166.378, 279.542 167.281, 276.815 168.513 C 273.869 169.843, 273.464 171.627, 275.959 172.279 C 278.074 172.832, 278.831 175, 276.910 175 C 275.134 175, 272.045 179.366, 272.572 181.132 C 272.841 182.032, 272.374 183.026, 271.530 183.350 C 269.550 184.110, 269.526 188, 271.500 188 C 274.372 188, 272.970 189.794, 268.429 191.928 C 263.635 194.182, 263.194 195.763, 266.847 197.601 C 270.354 199.365, 270.472 199.868, 268 202.500 C 265.748 204.897, 265.881 206.495, 268.333 206.504 C 268.975 206.506, 269.500 207.856, 269.500 209.504 C 269.500 212.089, 269.827 212.454, 271.888 212.164 C 273.201 211.979, 274.573 212.310, 274.937 212.899 C 275.302 213.488, 277.040 214.258, 278.800 214.610 C 281.597 215.169, 282 214.982, 282 213.125 C 282 211.956, 281.512 211, 280.917 211 C 280.321 211, 280.018 210.447, 280.243 209.772 C 280.468 209.096, 281.743 208.534, 283.076 208.522 C 285.079 208.504, 285.514 207.979, 285.582 205.500 C 285.730 200.137, 285.856 199.926, 288.500 200.589 C 290.688 201.139, 291 200.891, 291 198.608 C 291 196.709, 291.518 196, 292.906 196 C 294.253 196, 294.674 195.469, 294.340 194.193 C 293.939 192.659, 294.385 192.447, 297.291 192.786 C 299.737 193.071, 300.886 192.740, 301.314 191.625 C 301.643 190.766, 301.482 189.798, 300.956 189.473 C 300.430 189.148, 300 187.953, 300 186.819 C 300 185.252, 300.309 185.012, 301.284 185.820 C 303.071 187.303, 305.158 185.864, 303.963 183.974 C 302.220 181.218, 302.868 179.841, 305.750 180.178 C 308.306 180.477, 308.477 180.270, 308.175 177.250 C 307.989 175.396, 308.311 174, 308.925 174 C 309.516 174, 310 172.875, 310 171.500 C 310 169.310, 310.433 169, 313.500 169 C 316.574 169, 317 168.693, 317 166.481 C 317 164.327, 317.345 164.048, 319.382 164.560 C 321.726 165.148, 321.747 165.091, 320.661 161.024 C 319.407 156.325, 320.690 154.633, 324.738 155.649 C 326.802 156.167, 326.940 155.951, 326.372 153.108 C 325.838 150.439, 326.040 150, 327.802 150 C 328.930 150, 329.999 149.279, 330.177 148.398 C 330.442 147.083, 330.988 147.250, 333.231 149.333 C 334.733 150.728, 336.200 151.485, 336.490 151.016 C 337.131 149.979, 330.724 143, 329.132 143 C 328.509 143, 328 142.647, 328 142.216 C 328 141.260, 322.634 138, 321.061 138 C 320.440 138, 321.312 139.350, 323 141 C 325.740 143.678, 325.851 144, 324.034 144 C 322.916 144, 322 144.637, 322 145.417 C 322 146.196, 321.438 147.062, 320.750 147.341 C 319.808 147.723, 319.869 148.120, 321 148.954 C 322.181 149.825, 321.928 149.928, 319.812 149.438 C 317.249 148.843, 317.110 149.012, 316.812 153.079 C 316.478 157.648, 314.579 159.401, 313.534 156.106 C 312.944 154.250, 309.400 152.267, 308.420 153.246 C 307.748 153.919, 311.037 160, 312.073 160 C 313.920 160, 312.932 162.175, 309.777 165.056 C 308.005 166.675, 306.015 168, 305.357 168 C 304.698 168, 303.862 169.350, 303.500 171 C 303.047 173.063, 302.241 174, 300.921 174 C 299.864 174, 299 174.623, 299 175.383 C 299 176.144, 298.041 177.018, 296.868 177.324 C 295.266 177.743, 294.876 178.417, 295.298 180.033 C 295.833 182.078, 295.768 182.100, 293.986 180.488 C 292.955 179.555, 291.974 177.826, 291.806 176.646 C 291.638 175.466, 290.825 174.500, 290 174.500 C 288.101 174.500, 288.580 179.148, 290.598 180.300 C 291.369 180.740, 292 181.731, 292 182.503 C 292 185.219, 289.660 189, 287.978 189 C 286.694 189, 286.397 189.625, 286.765 191.551 C 287.210 193.877, 287.022 194.044, 284.626 193.442 C 282.076 192.802, 282 192.916, 282 197.392 C 282 202.675, 280.833 203.191, 277.360 199.443 C 274.160 195.991, 275.063 192.418, 279.617 190.515 C 283.322 188.968, 284.129 187, 281.059 187 C 278.778 187, 277.586 185.478, 278.593 183.850 C 278.983 183.218, 279.448 181.084, 279.625 179.109 C 279.803 177.134, 280.409 175.364, 280.974 175.175 C 281.538 174.987, 282 173.577, 282 172.042 C 282 169.710, 282.519 169.146, 285.150 168.620 C 288.127 168.025, 288.210 167.889, 286.650 166.166 C 284.222 163.483, 284.531 163.140, 289.672 162.805 C 295.176 162.446, 296.986 160.038, 291.833 159.930 C 290 159.891, 287.624 159.517, 286.554 159.098 C 284.696 158.371, 284.707 158.310, 286.804 157.762 C 288.012 157.446, 289 156.444, 289 155.535 C 289 154.626, 288.581 154.141, 288.069 154.457 C 287.557 154.774, 286.843 154.556, 286.483 153.973 C 285.571 152.497, 287.859 150, 290.122 150 C 292.574 150, 292.527 148.352, 290.037 147.020 C 287.382 145.599, 288.423 143.455, 292.308 142.341 C 296.135 141.243, 296.658 138.008, 293.250 136.513 C 289.575 134.900, 290.521 133, 295 133 C 299.932 133, 300.133 131.508, 295.500 129.299 C 291.129 127.214, 291.046 125.561, 295.250 124.363 C 297.701 123.664, 298.575 122.799, 298.804 120.844 C 298.972 119.418, 298.409 117.552, 297.554 116.697 C 295.344 114.486, 295.624 113.093, 298.500 112 C 301.335 110.922, 301.762 109.230, 299.426 108.333 C 298.331 107.913, 298.036 106.994, 298.456 105.318 C 299.339 101.802, 298.257 100.786, 295.531 102.572 C 293.553 103.868, 292.826 103.908, 291.083 102.820 C 289.937 102.104, 289 100.956, 289 100.269 C 289 99.581, 287.431 98.002, 285.512 96.759 C 281.806 94.358, 280.735 90.422, 283.500 89.362 C 285.308 88.668, 285.520 84.988, 283.750 85.028 C 283.063 85.043, 280.732 86.393, 278.572 88.028 C 272.579 92.562, 269 91.774, 269 85.918 C 269 84.548, 268.298 84, 266.545 84 C 264.523 84, 263.973 84.628, 263.421 87.568 M 265 90.559 C 265 91.416, 265.450 91.840, 266 91.500 C 266.550 91.160, 267 90.459, 267 89.941 C 267 89.423, 266.550 89, 266 89 C 265.450 89, 265 89.702, 265 90.559 M 210 91 C 210 91.550, 210.702 92, 211.559 92 C 212.416 92, 212.840 91.550, 212.500 91 C 212.160 90.450, 211.459 90, 210.941 90 C 210.423 90, 210 90.450, 210 91 M 105 95 C 105 95.550, 105.450 96, 106 96 C 106.550 96, 107 95.550, 107 95 C 107 94.450, 106.550 94, 106 94 C 105.450 94, 105 94.450, 105 95 M 263.054 97.358 C 261.848 100.530, 258.749 102.349, 257.196 100.796 C 255.738 99.338, 253 101.508, 253 104.122 C 253 105.333, 252.290 106, 251 106 C 249.007 106, 248.599 106.864, 248.960 110.324 C 249.075 111.426, 248.330 112.362, 247.075 112.691 C 243.968 113.503, 244.276 117.780, 247.500 118.589 C 250.366 119.309, 250.635 120.228, 248.500 122 C 247.675 122.685, 247 124.365, 247 125.734 C 247 128.037, 247.262 128.173, 250.500 127.566 C 253.755 126.955, 254 127.087, 254 129.455 C 254 130.855, 253.550 132, 253 132 C 252.450 132, 252 132.952, 252 134.117 C 252 135.852, 252.406 136.108, 254.250 135.536 C 260.157 133.705, 260.788 133.757, 261.543 136.136 L 262.283 138.467 263.109 136.234 C 264.316 132.970, 265.522 133.494, 266.574 137.739 C 267.159 140.102, 268.172 141.607, 269.324 141.827 C 271.452 142.233, 275 139.353, 275 137.220 C 275 136.122, 275.755 135.901, 277.980 136.346 C 280.386 136.827, 281.185 136.514, 282.126 134.721 C 282.767 133.499, 283.913 132.134, 284.672 131.686 C 285.699 131.080, 285.885 129.617, 285.400 125.959 C 284.784 121.318, 284.893 120.991, 287.366 120.051 C 289.792 119.129, 289.894 118.854, 288.762 116.278 C 288.091 114.750, 286.970 113.140, 286.271 112.700 C 284.306 111.464, 284.769 108.294, 287 107.710 C 291.483 106.538, 287.612 102, 282.129 102 C 278.054 102, 276 100.592, 276 97.800 C 276 95.377, 273.332 95.510, 272 98 C 270.548 100.713, 267.228 100.603, 266.820 97.828 C 266.358 94.691, 264.172 94.418, 263.054 97.358 M 250 97.441 C 250 98.298, 250.450 99, 251 99 C 251.550 99, 252 98.577, 252 98.059 C 252 97.541, 251.550 96.840, 251 96.500 C 250.450 96.160, 250 96.584, 250 97.441 M 279.500 98 C 279.840 98.550, 280.541 99, 281.059 99 C 281.577 99, 282 98.550, 282 98 C 282 97.450, 281.298 97, 280.441 97 C 279.584 97, 279.160 97.450, 279.500 98 M 99 100 C 99 100.550, 99.450 101, 100 101 C 100.550 101, 101 100.550, 101 100 C 101 99.450, 100.550 99, 100 99 C 99.450 99, 99 99.450, 99 100 M 147.155 107.313 C 146.610 107.970, 143.262 109.593, 139.716 110.919 C 131.849 113.861, 129.222 115.622, 130.619 117.019 C 131.301 117.701, 132.688 117.503, 134.878 116.411 C 138.677 114.516, 139.612 114.987, 138.006 117.988 C 137.011 119.847, 137.139 120.224, 138.925 120.691 C 141.286 121.308, 141.708 123.791, 139.590 124.604 C 137.989 125.218, 136.623 129.581, 137.558 131.095 C 137.963 131.749, 138.650 131.706, 139.537 130.970 C 140.499 130.171, 141.421 130.148, 142.698 130.891 C 143.777 131.519, 143.975 131.951, 143.191 131.970 C 141.093 132.018, 142.917 134, 145.059 134 C 147.487 134, 147.475 134.836, 145 138 C 141.903 141.959, 142.388 143.337, 146.598 142.548 C 150.333 141.847, 150.456 142.327, 147.481 146 C 146.812 146.825, 146.238 148.175, 146.205 149 C 146.172 149.825, 145.835 151.512, 145.456 152.750 C 144.617 155.489, 146.475 155.757, 149.862 153.384 C 151.635 152.142, 152.438 152.042, 153.334 152.952 C 154.223 153.854, 154.119 154.416, 152.896 155.321 C 152.013 155.974, 150.951 157.580, 150.535 158.890 C 149.842 161.073, 149.998 161.217, 152.389 160.617 C 155.613 159.808, 155.933 161.845, 153 164.500 C 149.896 167.309, 150.392 169.293, 154 168.500 C 156.902 167.863, 158.187 169.148, 156 170.500 C 155.450 170.840, 155 172, 155 173.078 C 155 174.669, 155.470 174.920, 157.500 174.411 C 159.391 173.936, 160 174.175, 160 175.392 C 160 176.276, 159.566 177, 159.035 177 C 158.505 177, 157.563 177.948, 156.943 179.107 C 155.367 182.051, 157.241 183.955, 160.011 182.225 C 161.090 181.551, 162.253 181, 162.595 181 C 163.208 181, 162.592 184.294, 161.397 187.407 C 160.989 188.470, 161.338 189, 162.445 189 C 163.395 189, 164.558 190.303, 165.167 192.051 C 166.183 194.963, 166.316 195.024, 168.115 193.396 C 169.152 192.458, 170 191.085, 170 190.345 C 170 188.117, 172.658 188.829, 174.429 191.532 C 176.625 194.884, 178.353 193.693, 177.544 189.385 C 176.846 185.662, 177.465 185.206, 180.047 187.542 C 181.601 188.949, 182.004 188.815, 184.625 186.025 C 186.929 183.573, 188.047 183.084, 190.251 183.562 C 192.271 184.001, 193.171 183.717, 193.640 182.495 C 194.135 181.206, 195.040 180.972, 197.640 181.460 C 200.353 181.969, 201 181.772, 201 180.437 C 201 179.172, 201.588 178.931, 203.500 179.411 C 205.355 179.876, 206 179.641, 206 178.500 C 206 177.359, 206.645 177.124, 208.500 177.589 C 210.391 178.064, 211 177.825, 211 176.608 C 211 175.601, 211.852 175, 213.281 175 C 214.912 175, 215.894 175.881, 216.728 178.091 C 218.189 181.961, 220 181.030, 220 176.409 C 220 170.212, 216.393 163.937, 214.548 166.923 C 214.234 167.431, 212.632 168.142, 210.989 168.503 C 209.345 168.864, 207.996 169.686, 207.992 170.329 C 207.979 172.339, 202.908 174.169, 201.225 172.772 C 200.073 171.816, 199.495 171.969, 198.349 173.538 C 197.437 174.784, 196.017 175.383, 194.457 175.178 C 192.789 174.960, 192 175.343, 192 176.369 C 192 178.754, 189.824 179.480, 188.422 177.562 C 186.847 175.409, 183 176.335, 183 178.867 C 183 180.666, 181.193 183, 179.800 183 C 179.360 183, 179 182.555, 179 182.011 C 179 180.743, 175.812 177, 174.732 177 C 174.280 177, 174.205 178.575, 174.566 180.500 C 175.307 184.450, 174.949 184.668, 171.465 182.385 C 169.828 181.313, 169 181.165, 169 181.944 C 169 182.590, 168.550 182.840, 168 182.500 C 167.450 182.160, 167 181.024, 167 179.976 C 167 178.928, 166.096 177.587, 164.991 176.995 C 163.520 176.208, 163.141 175.288, 163.575 173.557 C 163.955 172.043, 163.651 170.889, 162.730 170.347 C 160.408 168.980, 159.205 162.395, 160.520 158.250 C 161.059 156.550, 160.838 156, 159.617 156 C 158.727 156, 158 155.325, 158 154.500 C 158 153.675, 158.450 153, 159 153 C 159.550 153, 160 152.377, 160 151.617 C 160 150.856, 160.945 149.986, 162.101 149.684 C 163.257 149.381, 163.905 148.655, 163.542 148.067 C 162.663 146.645, 159.690 146.710, 158.217 148.183 C 157.566 148.834, 156.770 149.103, 156.447 148.781 C 155.683 148.017, 158.195 144, 159.437 144 C 160.552 144, 168.180 138.953, 169.184 137.551 C 169.560 137.025, 169.663 136.263, 169.412 135.857 C 168.815 134.892, 163 136.924, 163 138.098 C 163 138.594, 162.116 139, 161.035 139 C 159.955 139, 158.568 139.939, 157.954 141.086 C 157.340 142.233, 156.588 142.922, 156.284 142.617 C 155.979 142.312, 156.481 140.915, 157.399 139.513 C 158.958 137.134, 158.958 136.921, 157.402 136.324 C 156.485 135.972, 154.895 136.209, 153.868 136.851 C 151.519 138.317, 151.406 136.836, 153.610 133.473 C 155.799 130.132, 154.801 127.501, 151.929 129.038 C 149.465 130.357, 149.719 130.599, 148.059 125.350 C 146.915 121.733, 146.955 120.903, 148.373 118.878 C 150.655 115.620, 150.413 114.808, 147.269 115.178 C 143.137 115.665, 143.262 112.852, 147.473 110.584 C 149.413 109.540, 151 108.354, 151 107.950 C 151 106.581, 148.153 106.111, 147.155 107.313 M 288 110 C 288 110.550, 288.477 111, 289.059 111 C 289.641 111, 289.840 110.550, 289.500 110 C 289.160 109.450, 288.684 109, 288.441 109 C 288.198 109, 288 109.450, 288 110 M 79 113 C 79 113.550, 79.675 114, 80.500 114 C 81.325 114, 82 113.550, 82 113 C 82 112.450, 81.325 112, 80.500 112 C 79.675 112, 79 112.450, 79 113 M 50.369 122.480 C 49.525 124.680, 50.453 125.364, 51.906 123.613 C 52.724 122.628, 52.766 121.974, 52.041 121.526 C 51.461 121.167, 50.708 121.596, 50.369 122.480 M 142.200 125.200 C 140.567 126.833, 140.692 128, 142.500 128 C 143.333 128, 144 127.111, 144 126 C 144 123.669, 143.814 123.586, 142.200 125.200 M 248.229 131.188 C 248.847 133.042, 251 133.349, 251 131.583 C 251 130.713, 250.287 130, 249.417 130 C 248.546 130, 248.011 130.534, 248.229 131.188 M 56.517 134.967 C 55.654 136.635, 55.358 138, 55.859 138 C 57.304 138, 60.095 133.177, 59.031 132.519 C 58.511 132.198, 57.379 133.299, 56.517 134.967 M 255.750 136.689 C 254.787 136.941, 254 137.595, 254 138.143 C 254 139.557, 258.259 138.757, 258.755 137.250 C 259.177 135.968, 258.787 135.896, 255.750 136.689 M 53.484 144.027 C 53.135 144.591, 52.106 144.929, 51.197 144.777 C 50.288 144.624, 49.506 145.175, 49.458 146 C 49.314 148.466, 50.092 149.169, 51.589 147.926 C 52.671 147.028, 53 147.036, 53 147.961 C 53 150.158, 55.378 148.417, 56.109 145.685 C 56.629 143.740, 56.454 143, 55.473 143 C 54.728 143, 53.833 143.462, 53.484 144.027 M 268 145.441 C 268 146.234, 268.450 147.160, 269 147.500 C 269.550 147.840, 270 148.991, 270 150.059 C 270 151.127, 270.402 152, 270.893 152 C 272.049 152, 273 149.480, 273 146.418 C 273 144.505, 272.477 144, 270.500 144 C 268.990 144, 268 144.571, 268 145.441 M 43.510 148.016 C 43.856 148.575, 44.557 148.774, 45.069 148.457 C 46.456 147.600, 46.198 147, 44.441 147 C 43.584 147, 43.165 147.457, 43.510 148.016 M 155.500 151 C 155.160 151.550, 155.359 152, 155.941 152 C 156.523 152, 157 151.550, 157 151 C 157 150.450, 156.802 150, 156.559 150 C 156.316 150, 155.840 150.450, 155.500 151 M 48.500 189 C 48.160 189.550, 48.332 190, 48.882 190 C 49.432 190, 50.160 189.550, 50.500 189 C 50.840 188.450, 50.668 188, 50.118 188 C 49.568 188, 48.840 188.450, 48.500 189 M 269.750 193.689 C 267.354 194.315, 267.537 196, 270 196 C 271.111 196, 272 195.333, 272 194.500 C 272 193.675, 271.887 193.052, 271.750 193.116 C 271.613 193.180, 270.712 193.438, 269.750 193.689 M 274 204.500 C 274 205.942, 274.576 207, 275.361 207 C 276.274 207, 276.565 206.176, 276.245 204.500 C 275.982 203.125, 275.369 202, 274.883 202 C 274.398 202, 274 203.125, 274 204.500 M 179.445 254.444 C 178.816 257.797, 179.034 262.348, 180.577 278 C 181.245 284.781, 182.297 287.106, 183.946 285.450 C 185.143 284.249, 185.210 279.666, 184.259 264.011 C 183.617 253.440, 183.240 251.472, 181.807 251.198 C 180.561 250.961, 179.937 251.818, 179.445 254.444 M 154.251 254.667 C 152.659 258.555, 154.226 281.187, 156.266 283.762 C 157.826 285.732, 160.004 283.304, 159.976 279.628 C 159.962 277.907, 159.442 274.475, 158.820 272 C 158.199 269.525, 157.647 264.390, 157.595 260.588 C 157.500 253.641, 155.859 250.737, 154.251 254.667 M 168.369 258.480 C 167.120 261.736, 167.879 288.213, 169.262 289.595 C 169.641 289.975, 170.695 289.668, 171.603 288.914 C 173.007 287.750, 173.139 286.413, 172.487 280.022 C 172.065 275.885, 171.670 269.166, 171.609 265.091 C 171.536 260.143, 171.085 257.542, 170.251 257.258 C 169.563 257.025, 168.717 257.574, 168.369 258.480 M 142.038 260.454 C 141.159 261.514, 140.974 268.878, 141.328 288.820 L 141.807 315.755 137.386 316.361 C 130.673 317.281, 127.513 319.377, 125.100 324.511 C 121.618 331.918, 120.477 338.310, 121.829 342.824 C 123.230 347.500, 129.236 355.623, 131.923 356.476 C 134.380 357.255, 135.125 360.676, 135.494 372.873 C 135.868 385.238, 137.381 390.501, 140.992 391.997 C 142.484 392.615, 149.059 393.297, 155.602 393.513 C 173.076 394.089, 171.241 392.366, 171.663 408.581 L 172.025 422.500 167.762 422.530 C 165.418 422.547, 160.458 423.785, 156.739 425.280 C 153.021 426.776, 148.871 428, 147.516 428 C 144.884 428, 135.986 431.838, 134.765 433.500 C 134.361 434.050, 134.024 437.489, 134.015 441.142 C 134.001 447.260, 133.816 447.829, 131.666 448.369 C 130.382 448.691, 127.570 450.368, 125.416 452.096 C 123.262 453.824, 118.606 456.630, 115.068 458.332 C 108.386 461.547, 103.279 465.992, 99 472.317 C 97.625 474.349, 94.108 477.846, 91.184 480.088 L 85.868 484.164 81.914 482.582 C 75.817 480.143, 69.733 480.512, 66.135 483.540 C 62.557 486.551, 57 497.187, 57 501.025 C 57 504.655, 60.343 508.697, 64.012 509.503 C 65.655 509.864, 67 510.424, 67 510.748 C 67 511.072, 64.773 514.389, 62.050 518.120 C 53.359 530.033, 51.829 535.366, 56.223 538.443 C 59.098 540.457, 66.823 540.471, 69.038 538.466 C 70.600 537.052, 70.784 537.248, 71.375 540.944 C 71.871 544.043, 72.687 545.304, 74.959 546.479 C 79.329 548.738, 82.121 548.349, 86.310 544.896 L 90.076 541.792 94.702 545.396 C 97.246 547.378, 100.319 549, 101.529 549 C 106.062 549, 112 542.005, 112 536.666 C 112 534.139, 114.067 533.041, 118.882 533.014 C 120.358 533.005, 122.967 531.296, 125.746 528.517 C 129.921 524.342, 130.182 523.775, 129.541 520.267 C 129.162 518.195, 128.175 515.450, 127.348 514.166 C 125.681 511.579, 118.744 508.056, 115.250 508.022 C 114.013 508.010, 113 507.745, 113 507.434 C 113 505.651, 115.478 502.806, 118.280 501.374 C 120.051 500.468, 123.237 498.170, 125.360 496.267 C 128.862 493.128, 135.736 489.403, 136.542 490.208 C 137.626 491.293, 136.615 541.196, 135.471 543.046 C 134.755 544.205, 132.715 572.149, 132.700 581 C 132.682 591.389, 134.227 602.418, 136.068 605.050 C 137.733 607.431, 137.755 608.229, 136.399 617.050 C 135.600 622.248, 135.038 631.675, 135.150 638 C 135.272 644.950, 134.679 653.774, 133.651 660.302 C 132.714 666.243, 131.520 677.829, 130.997 686.048 C 130.474 694.267, 129.360 703.947, 128.523 707.558 C 126.624 715.744, 126.614 718.352, 128.464 721.931 C 129.633 724.190, 130.844 724.900, 134.464 725.442 C 138.956 726.116, 139 726.160, 139 730.035 C 139 733.339, 138.300 734.648, 134.500 738.447 C 132.025 740.922, 129.997 743.747, 129.993 744.724 C 129.990 745.701, 129.093 747.850, 128 749.500 C 126.718 751.436, 126.011 754.193, 126.007 757.275 C 126.001 761.477, 125.693 762.166, 123.435 763.025 C 122.024 763.561, 119.830 764, 118.560 764 C 114.454 764, 100.666 771.032, 95.352 775.836 C 78.765 790.830, 77.566 791.457, 67.235 790.551 C 61.041 790.008, 59.877 790.156, 59.339 791.558 C 58.356 794.121, 60.831 794.968, 69.349 794.985 C 78.328 795.002, 82.016 793.642, 87.037 788.461 C 88.883 786.558, 91 785, 91.744 785 C 92.487 785, 95.392 782.703, 98.199 779.896 C 101.747 776.348, 105.391 773.943, 110.151 772.005 C 113.918 770.473, 117 769.567, 117 769.993 C 117 771.350, 109.238 777.838, 105.073 779.963 C 99.481 782.816, 94.432 787.462, 90.443 793.425 C 88.575 796.216, 86.290 799.537, 85.365 800.805 C 83.802 802.947, 83.799 803.228, 85.331 804.760 C 87.199 806.628, 87.167 806.656, 93.167 798 C 96.755 792.825, 103.031 786, 104.203 786 C 104.641 786, 105 786.669, 105 787.487 C 105 788.304, 106.687 789.678, 108.750 790.540 C 110.813 791.401, 113.711 793.266, 115.190 794.683 C 118.860 798.198, 121.323 797.241, 120.460 792.637 L 119.824 789.249 124.662 788.374 C 128.750 787.636, 129.756 786.986, 131.153 784.189 C 132.063 782.368, 133.046 781.265, 133.338 781.738 C 133.630 782.211, 132.796 784.375, 131.485 786.549 C 124.692 797.807, 123.656 800.475, 123.062 808.250 L 122.469 816 132.075 816 C 140.760 816, 142.259 815.711, 147.720 812.982 C 151.041 811.322, 155.726 808.261, 158.129 806.179 C 160.533 804.097, 164.975 801.179, 168 799.695 C 171.025 798.211, 175.240 795.368, 177.366 793.379 C 180.967 790.008, 181.188 789.479, 180.605 785.631 C 179.618 779.130, 179.966 747.597, 181.064 743.866 C 182.013 740.646, 181.856 740.325, 177.449 736.455 C 173.404 732.904, 172.883 731.989, 173.171 728.955 C 173.428 726.257, 173.993 725.430, 175.750 725.180 C 177.175 724.978, 178 724.169, 178 722.976 C 178 720.606, 172.206 719.309, 168.233 720.790 C 161.333 723.362, 156.454 724.123, 153.665 723.063 C 152.123 722.476, 149.752 722.275, 148.396 722.615 C 145.261 723.402, 134.242 720.996, 132.751 719.199 C 131.909 718.185, 131.937 716.009, 132.862 710.669 C 133.545 706.726, 134.528 697.200, 135.047 689.500 C 136.071 674.322, 137.781 660.163, 138.787 658.535 C 139.135 657.973, 139.673 647.509, 139.984 635.282 C 140.354 620.742, 140.942 612.658, 141.685 611.915 C 142.532 611.068, 144.049 611.170, 147.660 612.318 C 159.404 616.051, 201.901 617.310, 212.494 614.239 C 220.254 611.989, 234.437 609.104, 234.997 609.662 C 235.274 609.938, 235.388 613.164, 235.251 616.832 C 234.425 638.968, 234.761 669.971, 235.877 674.558 C 236.997 679.163, 238.244 690.797, 239.625 709.536 L 240.143 716.573 234.802 718.786 C 231.865 720.004, 227.895 721.005, 225.981 721.012 C 224.066 721.018, 220.025 721.688, 217 722.500 C 212.505 723.706, 196.310 724.665, 195.884 723.750 C 195.820 723.612, 195.479 717.875, 195.127 711 C 194.605 700.793, 194.074 697.712, 192.236 694.204 C 190.064 690.059, 188.621 683.015, 185.873 663.138 C 185.046 657.160, 184.088 653.587, 183.222 653.255 C 180.364 652.158, 179.955 654.601, 181.411 664.069 C 182.209 669.256, 183.365 677.207, 183.981 681.738 C 184.596 686.269, 186.153 692.344, 187.440 695.238 C 189.289 699.395, 189.901 702.957, 190.351 712.201 C 190.684 719.029, 191.458 724.765, 192.211 725.976 C 192.983 727.218, 195.005 728.292, 197.250 728.653 C 200.994 729.255, 201 729.263, 201 734.180 C 201 738.760, 200.789 739.178, 197.979 740.157 C 196.317 740.736, 194.470 742.122, 193.874 743.236 C 192.577 745.658, 192.644 761.469, 194.027 779.500 C 194.908 790.983, 195.272 792.675, 197.147 794 C 198.314 794.825, 202.021 798.023, 205.385 801.106 C 208.748 804.190, 214.403 808.802, 217.950 811.356 C 223.286 815.198, 225.159 816, 228.794 816 L 233.187 816 225.407 810.750 C 221.127 807.862, 214.670 802.790, 211.056 799.477 C 207.443 796.165, 203.401 792.694, 202.074 791.764 C 199.761 790.145, 199.603 789.280, 198.265 770.936 C 197.498 760.410, 197.121 751.546, 197.429 751.238 C 197.736 750.931, 198.778 751.372, 199.744 752.219 C 200.710 753.066, 202.938 754.487, 204.695 755.376 C 208.215 757.159, 215 766.572, 215 769.672 C 215 770.753, 215.677 773.917, 216.505 776.703 C 218.493 783.399, 223.001 787, 229.394 787 C 234.401 787, 234.602 787.158, 239.570 795 C 242.610 799.797, 247 811.531, 247 814.858 C 247 815.486, 248.125 816, 249.500 816 C 252.456 816, 252.409 816.369, 250.426 808.716 C 248.768 802.316, 244.994 794.116, 241.865 790.115 C 239.609 787.230, 239.500 786, 241.500 786 C 242.325 786, 243 786.830, 243 787.845 C 243 790.816, 246.411 793.192, 250.149 792.826 C 253.340 792.513, 253.495 792.660, 254.022 796.500 C 254.668 801.211, 255.616 803, 257.466 803 C 258.830 803, 268 793.436, 268 792.014 C 268 790.605, 265.534 789.181, 262.500 788.838 C 259.921 788.548, 259.429 788.009, 258.998 785 C 258.504 781.556, 258.427 781.505, 254.190 781.824 C 249.288 782.193, 247 780.797, 247 777.437 C 247 773.962, 248.514 773.668, 252.722 776.325 C 254.810 777.643, 260.920 780.862, 266.299 783.479 C 272.560 786.525, 276.936 789.364, 278.462 791.368 C 281.627 795.525, 287.830 808.578, 288.605 812.709 C 289.109 815.396, 289.685 816, 291.742 816 C 294.054 816, 294.216 815.717, 293.704 812.564 C 293.397 810.674, 290.980 804.712, 288.333 799.314 C 285.686 793.916, 283.365 789.163, 283.176 788.750 C 282.266 786.760, 285.266 788.433, 289.642 792.354 C 296.203 798.236, 300.098 800.130, 304.015 799.347 C 305.751 799, 307.387 797.992, 307.650 797.108 C 307.912 796.224, 308.824 794.076, 309.675 792.335 C 312.733 786.084, 308.639 785.028, 304.500 791 C 302.975 793.200, 301.367 795, 300.925 795 C 300.483 795, 297.992 793.157, 295.390 790.904 C 289.688 785.970, 283.821 782.182, 279.610 780.716 C 277.900 780.120, 274.393 778.121, 271.819 776.272 C 268.463 773.863, 265.348 772.631, 260.819 771.921 C 252.980 770.692, 249.070 766.927, 249.027 760.566 C 248.994 755.744, 245.877 749.073, 241.480 744.410 C 238.798 741.567, 237.701 741.037, 235.592 741.566 L 233 742.217 233 735.035 C 233 728.730, 232.786 727.896, 231.250 728.200 C 229.736 728.499, 229.501 729.773, 229.511 737.655 L 229.521 746.765 225.511 748.633 C 223.151 749.731, 220.891 751.735, 220.021 753.500 C 219.207 755.150, 217.907 757.592, 217.132 758.926 L 215.724 761.351 213.777 757.557 C 212.601 755.264, 210.676 753.327, 208.915 752.662 C 206.809 751.867, 205.971 750.859, 205.894 749.031 C 205.836 747.639, 205.627 742.563, 205.429 737.750 L 205.071 729 208.285 728.988 C 210.053 728.982, 213.975 728.312, 217 727.500 C 220.025 726.688, 224.217 726.018, 226.315 726.012 C 229.583 726.002, 236.843 723.711, 241.977 721.071 C 243.955 720.054, 244.780 716.746, 244.900 709.364 C 244.960 705.682, 244.403 702.083, 243.506 700.364 C 242.577 698.583, 242.010 694.710, 242.006 690.119 C 242.003 686.060, 241.280 678.211, 240.400 672.678 C 239.123 664.645, 238.931 658.474, 239.444 642.059 C 240.476 609.085, 240.630 606.849, 242.357 599.675 C 244.052 592.638, 243.905 590.347, 241.319 583.500 C 238.169 575.158, 235.941 557.248, 234.477 528.500 C 233.665 512.550, 232.512 497.102, 231.913 494.171 C 231.315 491.240, 230.997 488.670, 231.207 488.460 C 231.417 488.250, 234.958 489.431, 239.077 491.085 C 245.996 493.863, 258 502.055, 258 503.999 C 258 504.460, 255.074 505.811, 251.498 507.001 C 246.339 508.717, 244.871 509.665, 244.388 511.589 C 243.474 515.231, 244.719 520.138, 247.410 523.500 C 249.469 526.073, 250.429 526.476, 254.155 526.335 C 256.545 526.244, 259.146 526.019, 259.937 525.835 C 261.032 525.579, 261.314 526.457, 261.125 529.537 C 260.856 533.922, 263.836 539, 266.678 539 C 267.521 539, 269.548 540.125, 271.182 541.500 C 272.816 542.875, 274.733 544, 275.442 544 C 277.634 544, 282 539.958, 282 537.929 C 282 536.255, 282.664 536.480, 287.087 539.658 C 290.926 542.416, 293.218 543.335, 296.433 543.406 C 301.768 543.524, 303.742 541.911, 305.161 536.275 C 305.784 533.801, 306.994 531.605, 307.890 531.324 C 314.209 529.340, 316.892 524.568, 315.590 517.626 C 314.839 513.627, 310.926 508.429, 307.956 507.486 C 305.394 506.673, 305.488 505.762, 308.500 502.182 C 310.608 499.677, 311 498.188, 311 492.682 C 311 487.098, 310.621 485.703, 308.381 483.041 C 303.340 477.050, 298.198 475.736, 291.027 478.606 L 287.013 480.212 281.547 475.217 C 267.466 462.347, 246.260 447.806, 238.719 445.847 C 235.333 444.968, 234.094 444.198, 234.473 443.210 C 237.039 436.522, 235.415 433.589, 228.575 432.564 C 225.836 432.153, 223.404 430.989, 221.886 429.362 C 218.598 425.839, 212.376 422.815, 209.183 423.189 C 206.646 423.486, 206.472 423.204, 205.347 417 C 204.698 413.425, 204.018 408.297, 203.834 405.604 C 203.502 400.733, 203.520 400.701, 207.309 399.386 C 210.208 398.380, 212.931 398.294, 218.712 399.027 C 228.882 400.316, 229.372 399.872, 228.603 390.047 C 228.278 385.896, 227.752 380.250, 227.433 377.500 C 226.861 372.558, 226.897 372.477, 230.499 370.554 C 236.617 367.287, 238.343 363.850, 238.815 353.996 C 239.163 346.713, 238.904 344.732, 237.157 341.309 C 234.387 335.877, 229.453 331.808, 226.110 332.197 C 223.777 332.468, 223.376 332.022, 222.330 328 C 221.687 325.525, 221.116 320.800, 221.062 317.500 C 220.961 311.368, 218.865 297.892, 216.875 290.579 C 216.206 288.119, 216.013 283.225, 216.388 278.250 C 216.965 270.620, 216.870 270, 215.131 270 C 211.452 270, 210.990 280.888, 213.938 298.151 C 215.004 304.393, 216.157 313.100, 216.501 317.500 C 217.233 326.874, 218.829 334.955, 220.317 336.826 C 220.980 337.660, 222.510 337.951, 224.436 337.610 C 230.342 336.563, 234.480 342.930, 234.265 352.731 C 234.082 361.045, 232.511 363.999, 226.750 366.856 C 222.136 369.145, 222 369.341, 222 373.712 C 222 376.187, 222.706 380.935, 223.569 384.265 C 224.431 387.594, 224.879 391.345, 224.564 392.600 C 224.020 394.769, 223.655 394.855, 217.246 394.318 C 208.868 393.616, 199.384 395.404, 198.776 397.799 C 198.539 398.735, 198.943 403.775, 199.674 409 C 200.404 414.225, 201.286 421.282, 201.633 424.682 L 202.263 430.863 198.754 432.330 C 196.823 433.136, 194.938 434.292, 194.563 434.898 C 193.363 436.840, 184.056 436.198, 180.368 433.918 L 177 431.837 176.873 422.168 C 176.803 416.851, 176.465 407.554, 176.123 401.509 L 175.500 390.518 170.500 389.646 C 167.750 389.167, 163.250 388.785, 160.500 388.797 C 157.750 388.809, 152.648 388.594, 149.162 388.320 C 143.083 387.842, 142.766 387.684, 141.412 384.443 C 140.585 382.464, 139.996 377.632, 139.991 372.782 C 139.987 368.227, 139.693 362.086, 139.338 359.135 C 138.758 354.300, 138.379 353.639, 135.506 352.438 C 131.099 350.597, 126.828 344.677, 126.273 339.639 C 125.713 334.551, 129.177 324.690, 132.291 322.509 C 134.724 320.805, 140.562 320.482, 141.500 322 C 142.376 323.417, 145.696 323.242, 146.249 321.750 C 147.467 318.466, 145.351 260.335, 143.984 259.490 C 143.567 259.233, 142.692 259.666, 142.038 260.454 M 191.443 265.530 C 190.397 272.504, 192.143 287.500, 194 287.500 C 195.253 287.500, 195.517 285.315, 195.604 274.250 C 195.700 262.138, 195.555 261, 193.916 261 C 192.555 261, 191.959 262.094, 191.443 265.530 M 201.699 265.205 C 200.780 272.060, 202.103 289.825, 203.575 290.390 C 206.391 291.471, 207.305 288.186, 206.539 279.727 C 206.130 275.202, 205.864 269.137, 205.949 266.250 C 206.083 261.686, 205.852 261, 204.183 261 C 202.684 261, 202.140 261.921, 201.699 265.205 M 167.635 320.073 C 164.232 322.749, 164.291 325.947, 167.805 329.313 C 171.244 332.608, 175.466 332.866, 177.065 329.878 C 179.265 325.767, 175.940 318, 171.980 318 C 171.039 318, 169.084 318.933, 167.635 320.073 M 193.073 323.635 C 190.349 327.097, 190.446 331.245, 193.329 334.596 C 196.526 338.312, 200.532 337.364, 202.607 332.399 C 203.973 329.130, 203.929 328.622, 202.021 325.533 C 200.130 322.475, 198.169 321, 195.991 321 C 195.526 321, 194.212 322.186, 193.073 323.635 M 154.213 348.188 C 152.214 350.186, 152.830 353.730, 155.783 357.215 C 157.314 359.022, 159.791 362.406, 161.288 364.735 C 163.090 367.541, 165.726 369.841, 169.093 371.547 C 173.920 373.993, 174.579 374.074, 182.179 373.155 C 188.683 372.369, 190.869 371.638, 193.841 369.256 C 195.854 367.644, 198.511 365.787, 199.747 365.129 C 202.225 363.810, 206 357.180, 206 354.147 C 206 353.084, 205.380 351.976, 204.622 351.685 C 202.923 351.033, 201 352.828, 201 355.065 C 201 357.197, 197.248 362, 195.582 362 C 194.883 362, 193.454 362.946, 192.407 364.102 C 189.275 367.563, 185.427 369, 179.300 368.996 C 173.010 368.992, 168.484 366.959, 165.569 362.830 C 164.665 361.548, 162.501 358.475, 160.760 356 C 159.019 353.525, 157.573 350.639, 157.547 349.588 C 157.489 347.244, 155.846 346.554, 154.213 348.188 M 158.757 429.409 C 155.599 430.708, 151.084 432.060, 148.725 432.414 C 146.365 432.768, 142.985 433.939, 141.213 435.017 L 137.991 436.976 138.530 450.238 C 138.826 457.532, 139.774 470.250, 140.636 478.500 C 141.984 491.401, 142.041 497.209, 141.039 520 C 139.823 547.655, 138.663 565.441, 137.429 575.343 C 136.561 582.305, 138.695 600.486, 140.757 603.704 C 141.595 605.012, 144.272 606.519, 147.345 607.412 C 155.085 609.662, 182.412 612.285, 188.435 611.355 C 191.221 610.926, 196.285 610.714, 199.690 610.886 C 203.735 611.090, 208.411 610.489, 213.190 609.152 C 217.210 608.027, 224.325 606.264, 229 605.234 L 237.500 603.363 238.345 597.125 C 239.084 591.668, 238.877 590.043, 236.694 584.153 C 233.081 574.406, 228.987 536.222, 228.997 512.360 C 228.999 508.434, 228.302 501.540, 227.448 497.041 C 226.045 489.644, 226.046 488.126, 227.453 481.181 C 229.428 471.437, 230.992 438.801, 229.534 437.765 C 228.966 437.361, 227.242 437.024, 225.705 437.015 C 224.040 437.006, 221.854 435.945, 220.301 434.392 C 217.228 431.319, 212.021 428.009, 210.250 428.004 C 209.563 428.002, 209 428.641, 209 429.424 C 209 430.948, 206.203 433.358, 199 438.039 C 193.995 441.292, 186.455 442.032, 181.297 439.777 C 176.667 437.752, 168.247 431.054, 167.700 428.960 C 167.045 426.455, 165.787 426.518, 158.757 429.409 M 233.753 464.750 C 233.467 472.863, 232.931 480.228, 232.560 481.118 C 231.793 482.962, 236.702 486.336, 241.769 487.449 C 245.588 488.288, 252.413 492.606, 260.323 499.189 C 264.974 503.060, 266.500 504.968, 266.500 506.915 C 266.500 509.349, 266.149 509.531, 260.500 510.031 C 257.200 510.323, 253.061 511.335, 251.302 512.280 C 248.341 513.870, 248.180 514.217, 249.129 516.941 C 250.808 521.758, 252.159 522.332, 258.485 520.916 C 265.492 519.348, 266.371 520.101, 266.130 527.465 C 265.960 532.661, 266.128 533.096, 268.724 534.201 C 270.251 534.850, 272.499 536.261, 273.719 537.336 C 275.935 539.288, 275.940 539.287, 276.869 536.845 C 277.380 535.500, 277.566 533.181, 277.282 531.694 C 276.733 528.823, 278.365 526, 280.574 526 C 281.306 526, 283.269 527.984, 284.938 530.410 C 288.435 535.493, 293.967 539.287, 297.201 538.822 C 300.494 538.347, 301.894 532.784, 299.668 529.015 C 298.751 527.462, 298 525.023, 298 523.596 C 298 519.835, 301.495 520.123, 303.526 524.051 C 304.801 526.515, 305.527 526.970, 307.302 526.416 C 310.081 525.549, 310.965 524.200, 310.985 520.797 C 311.012 516.018, 308.927 513.240, 302.906 510.030 C 299.695 508.319, 296.789 506.467, 296.448 505.916 C 295.494 504.372, 297.853 502.149, 299.883 502.680 C 302.097 503.259, 307.370 497.407, 306.553 495.278 C 306.249 494.485, 306 492.067, 306 489.904 C 306 486.540, 305.530 485.684, 302.750 483.989 C 298.407 481.341, 295.035 481.487, 290.571 484.517 C 286.543 487.250, 285.780 487.081, 282.028 482.621 C 279.244 479.313, 262.330 465, 261.205 465 C 260.809 465, 258.014 462.956, 254.993 460.458 C 249.554 455.961, 238.582 450, 235.743 450 C 234.538 450, 234.178 452.669, 233.753 464.750 M 131.500 453.202 C 130.400 453.791, 128.570 455.113, 127.432 456.140 C 126.295 457.166, 121.813 459.917, 117.472 462.253 C 111.270 465.591, 108.631 467.751, 105.148 472.343 C 100.518 478.449, 87.475 489.959, 85.158 489.985 C 84.419 489.993, 82.736 489.151, 81.416 488.113 C 80.097 487.075, 77.387 485.920, 75.394 485.546 C 70.952 484.713, 68.108 487.003, 64.387 494.411 C 60.413 502.324, 61.511 504.385, 70.308 505.520 C 76.414 506.307, 77.156 508.115, 73.080 512.277 C 67.756 517.715, 59 530.372, 59 532.630 C 59 535.044, 62.725 536.293, 65.422 534.784 C 66.309 534.287, 68.608 530.758, 70.530 526.941 C 72.991 522.053, 74.581 520, 75.906 520 C 78.655 520, 78.981 521.925, 77.444 529.094 C 75.291 539.135, 75.516 541.840, 78.565 542.606 C 81.910 543.445, 86.405 539.284, 88.303 533.592 C 89.267 530.700, 90.229 529.500, 91.583 529.500 C 93.174 529.500, 93.506 530.241, 93.533 533.861 C 93.560 537.493, 94.106 538.706, 96.798 541.111 C 100.646 544.549, 102.263 544.707, 104.877 541.901 C 107.731 538.838, 108.239 535.507, 106.490 531.321 C 105.114 528.029, 105.110 527.461, 106.452 526.119 C 107.794 524.777, 108.210 524.849, 110.264 526.778 C 113.336 529.664, 118.815 528.847, 122.552 524.946 C 125.967 521.381, 125.304 517.766, 120.723 514.973 C 116.583 512.449, 114.787 512.495, 109.931 515.250 C 105 518.048, 103.501 516.652, 105.474 511.099 C 107.802 504.542, 111.076 500.145, 115.605 497.491 C 118.066 496.049, 121.524 493.608, 123.290 492.067 C 125.055 490.525, 128.791 488.108, 131.591 486.696 L 136.683 484.127 135.761 478.314 C 135.254 475.116, 134.538 467.917, 134.169 462.315 C 133.526 452.530, 133.422 452.173, 131.500 453.202 M 176.950 686.633 C 176.348 688.215, 176.031 694.216, 176.218 700.464 C 176.525 710.676, 176.697 711.500, 178.525 711.500 C 180.395 711.500, 180.499 710.784, 180.481 698.077 C 180.468 688.387, 180.122 684.541, 179.237 684.246 C 178.564 684.021, 177.534 685.095, 176.950 686.633 M 166.500 726.504 C 165.950 726.643, 163.629 727.320, 161.342 728.008 C 158.162 728.965, 156.413 728.991, 153.910 728.119 C 152.110 727.491, 149.201 727.247, 147.446 727.576 C 144.428 728.142, 144.220 728.470, 143.615 733.615 C 142.767 740.836, 143.611 744, 146.386 744 C 149.508 744, 152.565 746.454, 155.131 751.020 C 156.362 753.209, 157.794 755, 158.313 755 C 158.833 755, 161.314 752.862, 163.825 750.250 L 168.392 745.500 168.799 736.653 C 169.189 728.177, 168.685 725.950, 166.500 726.504 M 173.180 742.250 C 173.356 743.487, 173.950 744.500, 174.500 744.500 C 175.050 744.500, 175.644 743.487, 175.820 742.250 C 176.039 740.702, 175.628 740, 174.500 740 C 173.372 740, 172.961 740.702, 173.180 742.250 M 136.073 743.635 C 134.933 745.084, 134 747.023, 134 747.944 C 134 748.864, 133.339 750.491, 132.532 751.559 C 131.724 752.626, 131.068 754.400, 131.073 755.500 C 131.080 757.103, 131.867 756.632, 135.041 753.121 C 138.217 749.609, 139 747.977, 139 744.871 C 139 742.742, 138.808 741, 138.573 741 C 138.337 741, 137.212 742.186, 136.073 743.635 M 235 748.794 C 235 750.423, 235.591 752.246, 236.314 752.846 C 237.037 753.446, 238.689 756.201, 239.985 758.968 C 241.281 761.736, 242.715 764, 243.171 764 C 243.627 764, 244 762.249, 244 760.109 C 244 757.341, 243.047 754.836, 240.697 751.425 C 236.651 745.554, 235 744.792, 235 748.794 M 144.398 749.765 C 141.922 751.416, 133.739 762.424, 132.954 765.159 C 132.201 767.786, 132.450 768.311, 135.306 770.112 C 139.706 772.887, 149.597 772.216, 152.231 768.963 C 155.024 765.514, 154.526 759.220, 151.022 753.696 C 148.123 749.125, 146.661 748.257, 144.398 749.765 M 165.250 755.243 C 161.813 758.714, 159 762.344, 159 763.309 C 159 766.044, 156.165 772.157, 154.239 773.577 C 153.283 774.281, 151.083 775.127, 149.350 775.456 C 147.618 775.784, 145.612 776.763, 144.892 777.631 C 144.171 778.498, 142.540 779.605, 141.265 780.089 C 139.991 780.574, 138.671 781.764, 138.331 782.735 C 137.991 783.706, 135.531 788.335, 132.864 793.022 C 128.764 800.227, 127.975 802.467, 127.757 807.522 L 127.500 813.500 131.500 813.205 C 138.985 812.652, 149.246 807.833, 155.500 801.934 C 157.150 800.377, 160.975 798.002, 164 796.654 C 167.025 795.307, 171.223 792.696, 173.328 790.852 C 176.929 787.698, 177.088 787.323, 176.005 784.500 C 175.266 782.573, 174.948 775.776, 175.115 765.500 C 175.362 750.331, 175.275 749.485, 173.438 749.216 C 172.165 749.029, 169.355 751.098, 165.250 755.243 M 225.663 754.246 C 221.545 758.364, 219.557 765.251, 220.596 771.799 L 221.500 777.500 226.497 777.815 C 233.352 778.247, 236.973 777.414, 240.496 774.594 L 243.492 772.196 240.285 768.205 C 238.521 766.011, 236.120 762.254, 234.949 759.857 C 233.778 757.461, 231.735 754.692, 230.410 753.704 C 228.062 751.953, 227.942 751.967, 225.663 754.246 M 121.937 772.576 C 120.855 773.880, 120.869 774.301, 122.017 775.010 C 123.845 776.140, 125 775.340, 125 772.941 C 125 770.593, 123.710 770.439, 121.937 772.576 M 129 772.809 C 129 775.123, 131.793 777.149, 134.549 776.836 L 137.500 776.500 133.693 774.250 C 129.501 771.773, 129 771.619, 129 772.809 M 120 781.173 C 120 782.536, 120.761 783, 123 783 C 124.891 783, 126 782.487, 126 781.613 C 126 780.837, 124.679 780.033, 123 779.787 C 120.601 779.435, 120 779.712, 120 781.173 M 110 782.720 C 106.960 784.933, 106.829 785.187, 109 784.648 C 110.375 784.306, 112.287 784.021, 113.250 784.014 C 114.329 784.005, 115 783.233, 115 782 C 115 779.473, 114.326 779.570, 110 782.720 M 247.500 787 C 247.139 787.583, 248.156 788, 249.941 788 C 251.623 788, 253 787.550, 253 787 C 253 786.450, 251.902 786, 250.559 786 C 249.216 786, 247.840 786.450, 247.500 787 M 258.500 794 C 258.160 794.550, 258.610 795, 259.500 795 C 260.390 795, 260.840 794.550, 260.500 794 C 260.160 793.450, 259.710 793, 259.500 793 C 259.290 793, 258.840 793.450, 258.500 794 M 42.158 814 C 42.158 815.375, 42.385 815.938, 42.662 815.250 C 42.940 814.563, 42.940 813.438, 42.662 812.750 C 42.385 812.063, 42.158 812.625, 42.158 814 M 4.709 813.624 C 4.319 814.014, 4.007 814.821, 4.015 815.417 C 4.024 816.013, 4.460 815.825, 4.985 815 C 5.793 813.730, 6.267 813.704, 8.078 814.826 C 9.855 815.928, 10.144 815.928, 9.780 814.826 C 9.293 813.348, 5.810 812.523, 4.709 813.624 M 14.015 814.750 C 14.025 815.861, 14.299 816.086, 14.765 815.366 C 15.169 814.742, 16.400 814.007, 17.500 813.732 C 19.033 813.349, 18.858 813.205, 16.750 813.116 C 14.748 813.032, 14.004 813.476, 14.015 814.750 M 24.497 813.740 C 26.145 813.982, 27.770 814.628, 28.108 815.174 C 28.456 815.738, 28.985 815.482, 29.329 814.584 C 29.830 813.280, 29.191 813.027, 25.719 813.150 C 22.303 813.271, 22.070 813.383, 24.497 813.740 M 32.872 814.661 C 31.622 816.174, 31.692 816.202, 33.669 814.971 C 35.504 813.828, 36.119 813.842, 37.669 815.060 C 39.346 816.379, 39.385 816.353, 38.128 814.750 C 36.405 812.553, 34.639 812.523, 32.872 814.661 M 54 815 C 52.787 815.784, 52.931 815.972, 54.750 815.985 C 55.987 815.993, 57 815.550, 57 815 C 57 813.747, 55.939 813.747, 54 815" stroke="none" fill="#000000" fill-rule="evenodd"/>
</svg>